<svg width="48" height="47" viewBox="0 0 48 47" fill="none" xmlns="http://www.w3.org/2000/svg">
<circle cx="24.0214" cy="23.3304" r="23.1888" fill="#4B82EF"/>
<path fill-rule="evenodd" clip-rule="evenodd" d="M24.0212 9.41699C24.3375 9.41699 24.6408 9.54264 24.8645 9.76629C25.0881 9.98994 25.2138 10.2933 25.2138 10.6096V22.1377H36.7419C37.0582 22.1377 37.3616 22.2634 37.5852 22.487C37.8089 22.7107 37.9345 23.014 37.9345 23.3303C37.9345 23.6466 37.8089 23.9499 37.5852 24.1736C37.3616 24.3972 37.0582 24.5229 36.7419 24.5229H25.2138V36.051C25.2138 36.3673 25.0881 36.6706 24.8645 36.8943C24.6408 37.1179 24.3375 37.2436 24.0212 37.2436C23.7049 37.2436 23.4016 37.1179 23.1779 36.8943C22.9543 36.6706 22.8286 36.3673 22.8286 36.051V24.5229H11.3005C10.9842 24.5229 10.6809 24.3972 10.4572 24.1736C10.2336 23.9499 10.1079 23.6466 10.1079 23.3303C10.1079 23.014 10.2336 22.7107 10.4572 22.487C10.6809 22.2634 10.9842 22.1377 11.3005 22.1377H22.8286V10.6096C22.8286 10.2933 22.9543 9.98994 23.1779 9.76629C23.4016 9.54264 23.7049 9.41699 24.0212 9.41699Z" fill="white"/>
</svg>
